<svg xmlns="http://www.w3.org/2000/svg" width="130" height="66.607" viewBox="0 0 130 66.607">
  <g id="Group_1" data-name="Group 1" transform="translate(-243.907 -312.068)">
    <path id="Path_1" data-name="Path 1" d="M511.471,341.374l-.042,0a.463.463,0,0,1-.42-.5h0c0-.024,0-.049.006-.074.289-3.261-.038-5.215-1.058-6.331-.967-1.058-2.7-1.532-5.627-1.537h-.08a.464.464,0,0,1-.463-.464.479.479,0,0,1,.5-.463h.046c6.026-.006,7.659-1.583,8.237-7.943,0-.027,0-.055.008-.082a.457.457,0,0,1,.5-.42.463.463,0,0,1,.419.5c0,.026,0,.051-.006.077-.289,3.259.038,5.213,1.058,6.329.967,1.057,2.7,1.532,5.626,1.537h.081a.464.464,0,0,1,.463.463.483.483,0,0,1-.5.464h-.046c-6.026.006-7.659,1.584-8.237,7.943,0,.027,0,.054-.008.082A.463.463,0,0,1,511.471,341.374Zm-3.023-8.878a4.879,4.879,0,0,1,2.193,1.342,5.15,5.15,0,0,1,1.207,2.565,5.677,5.677,0,0,1,4.217-3.972,4.88,4.88,0,0,1-2.193-1.342,5.152,5.152,0,0,1-1.207-2.566A5.677,5.677,0,0,1,508.448,332.5Z" transform="translate(-167.447 -6.905)" fill="#013c87"/>
    <path id="Path_2" data-name="Path 2" d="M490.61,324.314l-.042,0a.464.464,0,0,1-.42-.5l0-.052c.189-2.137-.018-3.409-.67-4.123-.616-.674-1.745-.977-3.656-.98h-.055a.463.463,0,0,1,0-.927h.057c3.926,0,4.991-1.034,5.367-5.184l0-.052v0a.457.457,0,0,1,.5-.42.464.464,0,0,1,.42.5h0c0,.016,0,.033,0,.049-.19,2.138.017,3.411.669,4.124.616.674,1.745.977,3.656.98h.055a.463.463,0,0,1,.463.463.474.474,0,0,1-.49.463h-.03c-3.925,0-4.99,1.034-5.367,5.183,0,.018,0,.037-.005.055A.463.463,0,0,1,490.61,324.314Zm-1.543-6.083a3.225,3.225,0,0,1,1.1.778,3.35,3.35,0,0,1,.726,1.311,3.749,3.749,0,0,1,2.313-2.169,3.213,3.213,0,0,1-1.1-.777,3.348,3.348,0,0,1-.726-1.311A3.747,3.747,0,0,1,489.066,318.231Z" transform="translate(-153.458 0)" fill="#013c87"/>
    <path id="Path_3" data-name="Path 3" d="M471.512,347.5l-.042,0a.463.463,0,0,1-.42-.5l0-.041c.154-1.738-.01-2.768-.531-3.338-.491-.538-1.4-.779-2.954-.781h-.045a.463.463,0,0,1-.463-.463.479.479,0,0,1,.485-.463h.026c3.212,0,4.033-.8,4.341-4.2,0-.015,0-.031,0-.047a.458.458,0,0,1,.5-.42.463.463,0,0,1,.42.5l0,.043c-.154,1.737.01,2.766.531,3.336.491.538,1.4.779,2.954.781h.045a.464.464,0,0,1,.463.463.482.482,0,0,1-.485.463h-.026c-3.212,0-4.033.8-4.341,4.2,0,.015,0,.03,0,.046A.464.464,0,0,1,471.512,347.5Zm-1.078-5.093a2.683,2.683,0,0,1,.773.584,2.759,2.759,0,0,1,.556.932,3.155,3.155,0,0,1,1.7-1.586,2.682,2.682,0,0,1-.774-.584,2.765,2.765,0,0,1-.555-.932A3.155,3.155,0,0,1,470.434,342.4Z" transform="translate(-141.748 -15.134)" fill="#013c87"/>
    <path id="Path_4" data-name="Path 4" d="M540.075,367.324q-6.24-.969-12.5-1.759,2.067-2.6,4.21-5.183c.556-.691.249-1.382-.683-1.5q-3.79-.488-7.586-.912a3.153,3.153,0,0,0-2.63,1.115q-1.637,2.668-3.219,5.345-3.831-.4-7.667-.724a.858.858,0,0,0-.645.252,1.9,1.9,0,0,0-.282.713,9.35,9.35,0,0,1-1.735,3.139,3.63,3.63,0,0,0-.372.514,2.923,2.923,0,0,0-.229.56q-.135.43-.268.861a1.2,1.2,0,0,0,1.1,1.6q2.766.233,5.531.5-5.171,8.628-9.7,17.352c-.408.757-.119,1.384.627,1.448q2.4.207,4.788.445a2.524,2.524,0,0,0,2.143-1.182q5.3-8.595,11.316-17.068,2.109.252,4.216.526-4.787,8.56-9.191,17.183c-.421.749-.134,1.43.609,1.523q2.456.306,4.909.646a2.4,2.4,0,0,0,2.156-1.153q7.4-11.427,15.779-22.666A.925.925,0,0,0,540.075,367.324Z" transform="translate(-167.106 -30.383)" fill="#013c87"/>
    <path id="Path_5" data-name="Path 5" d="M491.206,359.971a6.837,6.837,0,0,0-7.023,4.983,4.482,4.482,0,0,0,4.177,5.653,7.13,7.13,0,0,0,6.988-4.914A4.329,4.329,0,0,0,491.206,359.971Zm-2.213,8.038a2.191,2.191,0,0,0-2.085-2.9,3.731,3.731,0,0,0,3.646-2.54,2.21,2.21,0,0,0,2.074,2.919A3.647,3.647,0,0,0,488.993,368.009Z" transform="translate(-152.654 -30.568)" fill="#013c87"/>
    <path id="Path_6" data-name="Path 6" d="M338.5,344.148a1.747,1.747,0,0,0,1.656.857q2.925-.218,5.852-.4-1.491,9.153-2.329,18.3a1.13,1.13,0,0,0,1.277,1.3q2.552-.184,5.106-.335a1.889,1.889,0,0,0,1.672-1.482q1.638-9.141,4.005-18.272,2.239-.088,4.479-.153-1.065,9.02-1.744,18.042a1.2,1.2,0,0,0,1.289,1.375q2.629-.09,5.258-.145a1.774,1.774,0,0,0,1.669-1.45q2.428-12.2,5.838-24.357c.206-.784-.419-1.419-1.367-1.415q-6.636.028-13.269.246.941-2.835,1.958-5.667c.254-.754-.354-1.373-1.34-1.344q-4.009.121-8.016.309a2.419,2.419,0,0,0-2.165,1.493q-.489,2.836-.923,5.671-4.049.224-8.095.52a1.812,1.812,0,0,0-.414.079.458.458,0,0,0-.233.247.616.616,0,0,0,0,.388,6.623,6.623,0,0,1,.35,1.511,7.151,7.151,0,0,1-.542,3.665,1.362,1.362,0,0,0-.15.546A1.026,1.026,0,0,0,338.5,344.148Z" transform="translate(-60.71 -10.33)" fill="#013c87"/>
    <path id="Path_7" data-name="Path 7" d="M311.549,353.816a5.276,5.276,0,0,0,4.973-5.864c-.365-2.944-3.355-5.166-6.675-4.862-3.378.307-5.6,3.013-5,5.941A6.3,6.3,0,0,0,311.549,353.816Zm-1.243-8.115a3.076,3.076,0,0,0,3.368,2.486,2.715,2.715,0,0,0-2.6,3.019,3.048,3.048,0,0,0-3.376-2.466A2.77,2.77,0,0,0,310.306,345.7Z" transform="translate(-38.68 -19.786)" fill="#013c87"/>
    <path id="Path_8" data-name="Path 8" d="M295.972,481.955H293.43l.419-2.076h-.961L291.8,485.2h.962l.481-2.381h2.541l-.481,2.381h.954l1.083-5.319h-.954Z" transform="translate(-28.796 -106.629)" fill="#013c87"/>
    <path id="Path_9" data-name="Path 9" d="M314.662,479.65a3,3,0,0,0-1.58.435,3.122,3.122,0,0,0-1.137,1.137,2.976,2.976,0,0,0-.4,1.5,2.309,2.309,0,0,0,.741,1.763,2.712,2.712,0,0,0,1.907.687,3.072,3.072,0,0,0,1.61-.435,3.119,3.119,0,0,0,1.121-1.129,2.9,2.9,0,0,0,.4-1.465,2.345,2.345,0,0,0-.748-1.786A2.688,2.688,0,0,0,314.662,479.65Zm1.092,4.013a2.013,2.013,0,0,1-1.5.641,1.783,1.783,0,0,1-1.289-.465,1.6,1.6,0,0,1-.481-1.2,2.062,2.062,0,0,1,.626-1.48,2.006,2.006,0,0,1,1.5-.649,1.756,1.756,0,0,1,1.282.481,1.614,1.614,0,0,1,.489,1.221A2.009,2.009,0,0,1,315.754,483.664Z" transform="translate(-42.894 -106.492)" fill="#013c87"/>
    <path id="Path_10" data-name="Path 10" d="M336.082,483.145a1.367,1.367,0,0,1-1.366,1.274.969.969,0,0,1-1.1-1.007c0-.114.008-.214.015-.3l.672-3.236h-.961l-.587,2.907a3.392,3.392,0,0,0-.076.656,1.792,1.792,0,0,0,1.961,1.839,2.254,2.254,0,0,0,2.381-2.053l.679-3.35h-.954Z" transform="translate(-56.283 -106.629)" fill="#013c87"/>
    <path id="Path_11" data-name="Path 11" d="M352.583,480.5a.889.889,0,0,1,.885.549l.763-.457a1.621,1.621,0,0,0-1.595-.946,1.829,1.829,0,0,0-1.274.473,1.458,1.458,0,0,0-.511,1.114c0,.679.458,1.076,1.221,1.419.664.3.946.481.946.87a.687.687,0,0,1-.282.542,1.073,1.073,0,0,1-.694.229,1.169,1.169,0,0,1-1.244-.87l-.778.443a1.53,1.53,0,0,0,.664.931,2.276,2.276,0,0,0,1.282.351,2.026,2.026,0,0,0,1.45-.511,1.6,1.6,0,0,0,.557-1.221c0-.611-.381-1.092-1.152-1.435l-.45-.2-.3-.175a.528.528,0,0,1-.282-.481A.729.729,0,0,1,352.583,480.5Z" transform="translate(-67.257 -106.492)" fill="#013c87"/>
    <path id="Path_12" data-name="Path 12" d="M366.273,485.2h3.442l.183-.862H367.41l.3-1.473h2.274l.168-.847h-2.274l.259-1.274h2.435l.175-.862h-3.388Z" transform="translate(-77.566 -106.629)" fill="#013c87"/>
    <path id="Path_13" data-name="Path 13" d="M411.971,480.512a1.682,1.682,0,0,1,1.5.786l.733-.549a2.474,2.474,0,0,0-2.182-1.1,3,3,0,0,0-1.58.435,3.127,3.127,0,0,0-1.137,1.137,2.975,2.975,0,0,0-.4,1.5,2.312,2.312,0,0,0,.74,1.763,2.713,2.713,0,0,0,1.908.687,2.864,2.864,0,0,0,2.1-.87l-.6-.618a1.981,1.981,0,0,1-1.442.625,1.777,1.777,0,0,1-1.282-.465,1.574,1.574,0,0,1-.489-1.2,2.064,2.064,0,0,1,.625-1.48A2.006,2.006,0,0,1,411.971,480.512Z" transform="translate(-104.622 -106.492)" fill="#013c87"/>
    <path id="Path_14" data-name="Path 14" d="M429.177,479.879h-.962l-1.083,5.319H430.2l.183-.862h-2.114Z" transform="translate(-116.091 -106.629)" fill="#013c87"/>
    <path id="Path_15" data-name="Path 15" d="M441.658,485.2H445.1l.183-.862H442.8l.3-1.473h2.274l.168-.847h-2.274l.259-1.274h2.434l.176-.862h-3.388Z" transform="translate(-125.352 -106.629)" fill="#013c87"/>
    <path id="Path_16" data-name="Path 16" d="M460.028,479.879l-3.3,5.319h1.061l.664-1.061h2.366l.221,1.061h.939l-1.137-5.319Zm-1.114,3.472,1.3-2.106.427,2.106Z" transform="translate(-134.941 -106.629)" fill="#013c87"/>
    <path id="Path_17" data-name="Path 17" d="M480.516,483.641l-2.083-3.762h-.809L476.54,485.2h.923l.779-3.831,2.129,3.831h.748l1.083-5.319h-.923Z" transform="translate(-147.529 -106.629)" fill="#013c87"/>
    <path id="Path_18" data-name="Path 18" d="M496.21,485.2h.962l1.083-5.319h-.962Z" transform="translate(-159.787 -106.629)" fill="#013c87"/>
    <path id="Path_19" data-name="Path 19" d="M510.745,483.641l-2.083-3.762h-.809L506.77,485.2h.923l.778-3.831L510.6,485.2h.748l1.084-5.319h-.923Z" transform="translate(-166.7 -106.629)" fill="#013c87"/>
    <path id="Path_20" data-name="Path 20" d="M529.823,480.512a1.74,1.74,0,0,1,1.434.671l.709-.542a2.425,2.425,0,0,0-2.06-.992,2.982,2.982,0,0,0-1.6.442,3.183,3.183,0,0,0-1.122,1.153,3.027,3.027,0,0,0-.4,1.518,2.256,2.256,0,0,0,.725,1.7,2.661,2.661,0,0,0,1.892.686,3.138,3.138,0,0,0,2.045-.748l.473-2.389h-2.388l-.16.824H530.9l-.221,1.083a2.022,2.022,0,0,1-1.2.366,1.756,1.756,0,0,1-1.267-.458,1.592,1.592,0,0,1-.481-1.206,2.057,2.057,0,0,1,.618-1.473A2,2,0,0,1,529.823,480.512Z" transform="translate(-179.36 -106.492)" fill="#013c87"/>
    <path id="Path_21" data-name="Path 21" d="M355.983,399.331H317.8a4.743,4.743,0,0,0,1.6-3.6,4.843,4.843,0,0,0-.918-2.86q2.029.023,4.059.073c2.187.055,4.375.127,6.564.231a1.68,1.68,0,0,0,1.53-1.434q.52-2.347,1.051-4.694a1.167,1.167,0,0,0-.921-1.565q-4.11-.278-8.224-.443-1.794-.074-3.588-.128.168-2,.34-4,.252-2.976.506-5.952,6.224.186,12.442.606a1.742,1.742,0,0,0,1.677-1.422v0h0l.192-.821q.129-.547.259-1.1c0-.008,0-.015,0-.023q.208-.882.417-1.765a.991.991,0,0,0,.026-.569.526.526,0,0,0-.4-.254,5.613,5.613,0,0,1-3.414-1.437,1.66,1.66,0,0,0-.491-.426,2.232,2.232,0,0,0-.71-.137q-4.327-.247-8.657-.388.392-3.54.8-7.08a1.3,1.3,0,0,0-1.269-1.535q-4.349-.128-8.7-.153a1.634,1.634,0,0,0-1.6,1.488q.429,10.484.735,20.967.123,4.163.228,8.326a3.826,3.826,0,0,0-1.5-.307,3.931,3.931,0,0,0-2.677,1.08,7.084,7.084,0,0,0-5.346-2.5,7.528,7.528,0,0,0-7.256,6.816,3.527,3.527,0,0,0-1.639,1.283,4.433,4.433,0,0,0-.552,3.722h-5.538c-.029-.04-.057-.08-.087-.119a6.784,6.784,0,0,1-1.09-5.482,2.571,2.571,0,0,0-1.071-2.636v-2.126a.841.841,0,0,0-.36-.7H285c1.285,3.755,2.876,4.5,3.486,4.779l.051.024a.641.641,0,0,0,.274.063.616.616,0,0,0,.492-.255.846.846,0,0,0,.033-.939,15.978,15.978,0,0,1-2.073-6.266,4,4,0,0,1,.508-.018l.012,0,.012,0h2.325a.478.478,0,0,0,.453-.5v-3.049a.478.478,0,0,0-.453-.5H287.8c-.141,0-2.308-.029-4.155-.031-1.052,0-2,.006-2.411.032a7.25,7.25,0,0,0-4.2,1.7q-.219-1.337-.437-2.674c-.017-.108-.036-.217-.053-.325a1.521,1.521,0,0,0-1.562-1.348q-6.214.665-12.41,1.566-1.511-4.881-3.008-9.765,6.5-.943,13.028-1.641a1.377,1.377,0,0,0,1.154-1.671v0h0q-.064-.413-.127-.826-.084-.552-.167-1.1c0-.008,0-.015-.005-.023q-.161-1.065-.321-2.13a.549.549,0,0,0-.136-.336.529.529,0,0,0-.358-.059l-.155.019a7.368,7.368,0,0,1-4.42-.982,1.106,1.106,0,0,0-.367-.164,1.49,1.49,0,0,0-.444,0q-4.658.543-9.308,1.205-.977-3.49-1.942-6.981a1.716,1.716,0,0,0-1.9-1.254q-4.523.659-9.036,1.424a1.321,1.321,0,0,0-1.085,1.729q6.739,15.041,13.215,30.131a1.712,1.712,0,0,0,1.727,1.288q7.038-1.3,14.133-2.266c.929-.127,1.858-.253,2.788-.372a4.8,4.8,0,0,0,1.058.111c1.389.052,2.58.2,2.99,1.277h-.212a.791.791,0,0,0-.75.825v2.057a2.56,2.56,0,0,0-1.182,2.705,6.783,6.783,0,0,1-1.09,5.482c-.03.039-.057.079-.086.118H259.355a.5.5,0,0,0,0,1h16.5v0H277l0,0c.115-.161.231-.321.35-.48s.245-.344.353-.517a8.081,8.081,0,0,0,.933-5.76,1.569,1.569,0,0,1,.445-1.465.432.432,0,0,0,.054.049,5.015,5.015,0,0,0,2.686.489,7.141,7.141,0,0,0,1.824-.22,3.584,3.584,0,0,0,.679-.24.487.487,0,0,0,.04-.029,1.583,1.583,0,0,1,.4,1.416,8.084,8.084,0,0,0,.933,5.761c.108.172.224.345.353.516s.235.32.35.481l0,0h1.141l0,0h8.694v6.537a2.149,2.149,0,1,0,4.279,0v-4.826a1.715,1.715,0,0,1,1.078-1.631,1.431,1.431,0,0,1,.347-.079h54.051a.5.5,0,0,0,0-1Zm-68.192-16.725h1.872v2.052h-1.872Zm.356,9.114c-.665-.507-1.591-1.59-2.406-4.12a.458.458,0,0,0-.427-.332H284.3a3.679,3.679,0,0,1,2.063-1.428A17.308,17.308,0,0,0,288.148,391.72Zm-4.474-.68v.341l-.032.01-.064.02a6.087,6.087,0,0,1-1.76.234,6.279,6.279,0,0,1-1.99-.248v-2.257h3.846Zm-.032-4.453c-.039.053-.078.105-.115.161a4.936,4.936,0,0,0-.614,1.328c-.006.021-.011.044-.017.065h-2.057c-.454-1.974-2.287-2.2-3.589-2.26l-.326-.014c-.228-.008-.514-.019-.709-.045a5.349,5.349,0,0,1,1-1.384,6.348,6.348,0,0,1,4.066-1.833c.391-.025,1.322-.031,2.359-.031,1.378,0,2.945.017,3.7.026v2.059c-.132.007-.271.023-.415.043a5.332,5.332,0,0,0-1.547.459,4.789,4.789,0,0,0-.82.5,4.524,4.524,0,0,0-.359.3A4.4,4.4,0,0,0,283.642,386.586Zm18.171,1.918a6.222,6.222,0,0,1,4.72,2.226,4.731,4.731,0,0,0-.669,1.411,5.478,5.478,0,0,0-3.112-.987,5.852,5.852,0,0,0-5.23,3.564,3.226,3.226,0,0,0-1.853-.6c-.057,0-.112.006-.168.01A6.562,6.562,0,0,1,301.813,388.5Zm13.419,10.808a.42.42,0,0,0-.06,0,.412.412,0,0,0-.059,0H302.078a2.239,2.239,0,0,0-.265.016,2.424,2.424,0,0,0-1.66,1c-.019.026-.036.053-.054.079a2.886,2.886,0,0,0-.5,1.631v4.826a1.239,1.239,0,1,1-2.466,0v-7.052a.479.479,0,0,0-.381-.482.371.371,0,0,0-.072-.016h-3.309a2.346,2.346,0,0,1-.285-1.356,2.884,2.884,0,0,1,1.4-2.521,2.446,2.446,0,0,1,.457-.2,2.306,2.306,0,0,1,.725-.116,2.449,2.449,0,0,1,1.731.749.456.456,0,0,0,.078.061,2.688,2.688,0,0,1,.209.241.437.437,0,0,0,.35.182.428.428,0,0,0,.288-.114.533.533,0,0,0,.062-.7c-.044-.058-.1-.109-.142-.164a4.969,4.969,0,0,1,4.506-3.221,4.683,4.683,0,0,1,3.1,1.208.382.382,0,0,0,.024.032,5.169,5.169,0,0,1,.443.45.426.426,0,0,0,.641.015.535.535,0,0,0,.013-.705c-.1-.118-.219-.226-.332-.336a3.756,3.756,0,0,1,.483-1.292,3.586,3.586,0,0,1,.29-.406,3.407,3.407,0,0,1,.325-.346,3.074,3.074,0,0,1,2.092-.844,3.013,3.013,0,0,1,1.526.42,3.457,3.457,0,0,1,1.438,1.69,4.386,4.386,0,0,0-.725.727c-.09.114-.177.233-.256.356a.531.531,0,0,0,.11.694.421.421,0,0,0,.261.091.441.441,0,0,0,.371-.211,3.486,3.486,0,0,1,.749-.834,3.251,3.251,0,0,1,.265-.193c.011-.007.017-.018.027-.026a2.988,2.988,0,0,1,3.564.219,3.7,3.7,0,0,1,1.324,2.875A3.434,3.434,0,0,1,315.232,399.313Z" transform="translate(0 -31.433)" fill="#013c87"/>
    <path id="Path_22" data-name="Path 22" d="M381.079,425.793a2.576,2.576,0,1,0,2.576-2.576A2.579,2.579,0,0,0,381.079,425.793Zm4.154,0a1.579,1.579,0,1,1-1.578-1.579A1.58,1.58,0,0,1,385.233,425.793Z" transform="translate(-86.974 -70.61)" fill="#013c87"/>
  </g>
</svg>
